<?xml version="1.0" encoding="UTF-8"?>
<!DOCTYPE svg PUBLIC "-//W3C//DTD SVG 1.1//EN" "http://www.w3.org/Graphics/SVG/1.1/DTD/svg11.dtd">
<!-- Creator: CorelDRAW X7 -->
<svg xmlns="http://www.w3.org/2000/svg" xml:space="preserve" width="236px" height="236px" version="1.1" style="shape-rendering:geometricPrecision; text-rendering:geometricPrecision; image-rendering:optimizeQuality; fill-rule:evenodd; clip-rule:evenodd"
viewBox="0 0 236 236"
 xmlns:xlink="http://www.w3.org/1999/xlink">

 <g id="Слой_x0020_1" >
  <path fill="#00a9d9" d="M95 153c0,12 -4,21 -11,28 -8,7 -18,10 -30,10 -14,0 -26,-4 -34,-14 -9,-9 -13,-22 -13,-37 0,-16 3,-30 8,-41 5,-11 11,-20 18,-28 7,-7 14,-13 21,-17 8,-4 15,-7 20,-9l19 32c-8,3 -14,8 -20,15 -6,7 -9,15 -10,23 8,0 16,3 22,10 7,7 10,16 10,28zm134 0c0,12 -4,21 -12,28 -8,7 -17,10 -29,10 -15,0 -26,-4 -35,-14 -8,-9 -12,-22 -12,-37 0,-16 2,-30 7,-41 5,-11 11,-20 18,-28 7,-7 15,-13 22,-17 8,-4 14,-7 20,-9l19 32c-8,3 -15,8 -20,15 -6,7 -9,15 -10,23 8,0 15,3 22,10 7,7 10,16 10,28z"/>
 </g>
</svg>
