<?xml version="1.0" encoding="UTF-8"?>
<!DOCTYPE svg PUBLIC "-//W3C//DTD SVG 1.1//EN" "http://www.w3.org/Graphics/SVG/1.1/DTD/svg11.dtd">
<!-- Creator: CorelDRAW X7 -->
<svg xmlns="http://www.w3.org/2000/svg" xml:space="preserve" width="1654px" height="354px" version="1.1" style="shape-rendering:geometricPrecision; text-rendering:geometricPrecision; image-rendering:optimizeQuality; fill-rule:evenodd; clip-rule:evenodd"
viewBox="0 0 1654 354"
 xmlns:xlink="http://www.w3.org/1999/xlink">
 <defs>
  <style type="text/css">
   <![CDATA[
    .str0 {stroke:#E31E24;stroke-width:10.002;stroke-linecap:round;stroke-linejoin:round}
    .str1 {stroke:#FEFEFE;stroke-width:20.812;stroke-linecap:round;stroke-linejoin:round}
    .str2 {stroke:#FEFEFE;stroke-width:20.812;stroke-linecap:round;stroke-linejoin:round}
    .fil2 {fill:none}
    .fil3 {fill:none;fill-rule:nonzero}
    .fil1 {fill:#E31E24}
    .fil0 {fill:white}
    .fil4 {fill:#0C54A0;fill-rule:nonzero}
   ]]>
  </style>
 </defs>
 <g id="Слой_x0020_1">
  <metadata id="CorelCorpID_0Corel-Layer"/>
  <g id="_64250108000">
   <path class="fil0" d="M713 152c3,-62 55,-112 118,-112 56,0 103,40 115,93 18,79 -37,143 -115,143 -17,0 -33,-3 -48,-10 -4,7 -11,11 -18,15 -1,7 -5,13 -10,19 -15,16 -41,17 -61,11 -14,-4 -28,-12 -36,-24 -4,-5 -7,-11 -9,-17 -8,-21 -5,-50 16,-62 -1,-6 -3,-12 -4,-17 -6,-19 -10,-37 10,-49l2 -1 1 0c14,-1 26,1 36,9 1,1 2,2 3,2z"/>
   <g>
    <path class="fil1" d="M831 60c54,0 98,44 98,98 0,55 -44,99 -98,99 -55,0 -99,-44 -99,-99 0,-54 44,-98 99,-98zm-117 207c0,0 1,0 2,1 22,7 54,3 57,-18 1,-12 -9,-18 -20,-13 -12,8 -29,9 -41,8l0 0c-2,0 -3,-1 -3,-3 0,-2 1,-4 2,-4l0 0 0 0c0,0 1,0 1,0 0,0 0,0 1,0 19,3 37,-2 34,-20 -8,-20 -33,-15 -58,-6 -18,8 -28,19 -29,33 -1,10 3,20 7,29 11,13 22,23 39,25 20,4 38,-2 43,-20 -13,1 -29,1 -37,-5l0 0c-1,0 -2,-2 -2,-3 0,-2 2,-4 4,-4zm8 -90c-9,-13 -20,-31 -47,-28 -25,15 1,44 -2,65 -24,8 -26,47 -8,68 22,33 89,34 93,-7 9,-4 17,-9 22,-19 15,8 32,12 51,12 18,0 36,-5 52,-13 44,-24 58,-60 58,-97 0,-61 -50,-110 -110,-110 -61,0 -110,49 -110,110 0,7 0,13 1,19zm-43 -21c18,-4 37,19 43,41 -15,0 -28,3 -41,12 0,-18 -23,-46 -2,-53z"/>
    <ellipse class="fil1" cx="800" cy="127" rx="12" ry="29"/>
    <ellipse class="fil1" cx="862" cy="127" rx="12" ry="29"/>
    <path class="fil2 str0" d="M904 146c-2,48 -21,89 -75,88 -51,-3 -74,-38 -71,-88"/>
    <g>
     <path class="fil3 str1" d="M162 237l-72 0 -10 34 -65 0 77 -205 69 0 78 205 -67 0 -10 -34zm-13 -44l-23 -74 -23 74 46 0zm110 -127l119 0c20,0 35,5 46,14 11,10 16,22 16,37 0,12 -4,22 -11,31 -6,6 -13,11 -23,14 15,3 26,10 33,18 7,9 10,20 10,33 0,11 -2,20 -7,29 -5,8 -12,15 -20,20 -6,3 -14,5 -24,7 -15,1 -24,2 -29,2l-110 0 0 -205zm64 80l28 0c10,0 17,-1 21,-5 4,-3 6,-8 6,-15 0,-6 -2,-10 -6,-14 -4,-3 -11,-5 -21,-5l-28 0 0 39zm0 81l33 0c11,0 19,-2 23,-6 4,-4 7,-9 7,-15 0,-6 -2,-11 -7,-15 -4,-4 -12,-6 -23,-6l-33 0 0 42zm145 -161l194 0 0 50 -65 0 0 155 -64 0 0 -155 -65 0 0 -50z"/>
     <path id="1" class="fil4" d="M162 237l-72 0 -10 34 -65 0 77 -205 69 0 78 205 -67 0 -10 -34zm-13 -44l-23 -74 -23 74 46 0zm110 -127l119 0c20,0 35,5 46,14 11,10 16,22 16,37 0,12 -4,22 -11,31 -6,6 -13,11 -23,14 15,3 26,10 33,18 7,9 10,20 10,33 0,11 -2,20 -7,29 -5,8 -12,15 -20,20 -6,3 -14,5 -24,7 -15,1 -24,2 -29,2l-110 0 0 -205zm64 80l28 0c10,0 17,-1 21,-5 4,-3 6,-8 6,-15 0,-6 -2,-10 -6,-14 -4,-3 -11,-5 -21,-5l-28 0 0 39zm0 81l33 0c11,0 19,-2 23,-6 4,-4 7,-9 7,-15 0,-6 -2,-11 -7,-15 -4,-4 -12,-6 -23,-6l-33 0 0 42zm145 -161l194 0 0 50 -65 0 0 155 -64 0 0 -155 -65 0 0 -50z"/>
    </g>
    <g>
     <path class="fil3 str2" d="M981 66l83 0 33 125 32 -125 83 0 0 205 -52 0 0 -157 -40 157 -47 0 -40 -157 0 157 -52 0 0 -205zm398 171l-72 0 -10 34 -65 0 77 -205 70 0 77 205 -67 0 -10 -34zm-13 -44l-23 -74 -22 74 45 0zm273 -77l-99 0 0 155 -64 0 0 -205 163 0 0 50z"/>
     <path id="1" class="fil4" d="M981 66l83 0 33 125 32 -125 83 0 0 205 -52 0 0 -157 -40 157 -47 0 -40 -157 0 157 -52 0 0 -205zm398 171l-72 0 -10 34 -65 0 77 -205 70 0 77 205 -67 0 -10 -34zm-13 -44l-23 -74 -22 74 45 0zm273 -77l-99 0 0 155 -64 0 0 -205 163 0 0 50z"/>
    </g>
   </g>
  </g>
 </g>
</svg>
